# xmcd
# 
# Track frame offsets:
#     150
#     13524
#     27846
#     42336
#     55682
#     68890
#     82209
#     95444
#     105169
#     116927
#     130358
#     145126
#     158667
#     171624
#     187646
#     202163
#     216736
#     229888
#     245826
#     261263
#     277396
#     290408
#     303560
#     318133
#     332197
# 
# Disc length: 4618
# 
# Revision: 5
# Processed by: cddbd v1.5.2PL0 Copyright (c) Steve Scherf et al.
# Submitted via: fre:ac v1.0.17
# 
DISCID=85120819
DTITLE=3 Artistes du SAX Ténor - Les Triomphes du Jazz 2-11
DYEAR=2003
DGENRE=Jazz
TTITLE0=Bottoms up
TTITLE1=Ghost of a chance
TTITLE2=Memories of you
TTITLE3=Merle's mood
TTITLE4=Jacquet bounce
TTITLE5=Jumpin' at Apollo
TTITLE6=Robbins' nest
TTITLE7=Addam's alley
TTITLE8=Blue satin
TTITLE9=What do you want with my heart ?
TTITLE10=Candy
TTITLE11=Cherokee
TTITLE12=September song
TTITLE13=Tenderly
TTITLE14=I'm in the mood for love
TTITLE15=My blue heaven
TTITLE16=Roses of Picardy
TTITLE17=All too soon
TTITLE18=Chloe
TTITLE19=Just a-sittin' and a-rockin'
TTITLE20=Chelsea Bridge
TTITLE21=I got it bad and that ain't good
TTITLE22=Blues Mr Brim
TTITLE23=Frog and mule
TTITLE24=Stardust
EXTD=Trois maîtres du saxophone ténor
EXTT0=
EXTT1=
EXTT2=
EXTT3=
EXTT4=
EXTT5=
EXTT6=
EXTT7=
EXTT8=
EXTT9=
EXTT10=
EXTT11=
EXTT12=
EXTT13=
EXTT14=
EXTT15=
EXTT16=
EXTT17=
EXTT18=
EXTT19=
EXTT20=
EXTT21=
EXTT22=
EXTT23=
EXTT24=
PLAYORDER=
